<?xml version="1.0" encoding="utf-8"?>
<!-- Generator: Adobe Illustrator 24.0.0, SVG Export Plug-In . SVG Version: 6.00 Build 0)  -->
<svg version="1.1" id="Layer_1" xmlns="http://www.w3.org/2000/svg" xmlns:xlink="http://www.w3.org/1999/xlink" x="0px" y="0px"
	 viewBox="0 0 36 36" style="enable-background:new 0 0 36 36;" xml:space="preserve">
<style type="text/css">
	.st0{fill:#5972B1;}
</style>
<path class="st0" d="M27.49,9.71c-0.11,0.16-0.19,0.29-0.29,0.39c-2.72,2.98-5.45,5.96-8.18,8.94c-0.73,0.8-1.28,0.8-2,0.01
	c-2.72-2.98-5.44-5.97-8.16-8.96c-0.09-0.1-0.18-0.21-0.33-0.39C14.89,9.71,21.15,9.71,27.49,9.71z"/>
<path class="st0" d="M7.27,11.37c2.02,2.12,4.11,4.31,6.25,6.55c-2.11,2.34-4.14,4.59-6.25,6.94C7.27,20.25,7.27,15.75,7.27,11.37z"
	/>
<path class="st0" d="M8.49,26.29c2.12-2.36,4.18-4.64,6.26-6.95c0.95,1,1.71,2.2,3.22,2.23c1.51,0.03,2.29-1.16,3.27-2.17
	c2.06,2.28,4.09,4.55,6.21,6.9C21.09,26.29,14.86,26.29,8.49,26.29z"/>
<path class="st0" d="M28.73,24.93c-2.12-2.36-4.16-4.61-6.22-6.91c2.1-2.21,4.18-4.39,6.22-6.53C28.73,15.84,28.73,20.3,28.73,24.93
	z"/>
</svg>
