<svg width="24" height="24" xmlns="http://www.w3.org/2000/svg">
 <title/>

 <g>
  <title>background</title>
  <rect fill="none" id="canvas_background" height="402" width="582" y="-1" x="-1"/>
 </g>
 <g>
  <title>Layer 1</title>
  <path fill="#5972b1" id="svg_1" d="m21.54736,7l-3.29048,0a0.74281,0.74281 0 0 0 -0.65452,0.39156s-1.31237,2.41693 -1.73392,3.231c-1.13406,2.18994 -1.86844,1.50244 -1.86844,0.48607l0,-3.50446a1.10417,1.10417 0 0 0 -1.10417,-1.10417l-2.474,0a1.9818,1.9818 0 0 0 -1.751,0.8125s1.25626,-0.20312 1.25626,1.48958c0,0.41974 0.02162,1.62723 0.04132,2.64a0.72943,0.72943 0 0 1 -1.273,0.50431a21.54029,21.54029 0 0 1 -2.4982,-4.54359a0.69314,0.69314 0 0 0 -0.63041,-0.4028c-0.7136,0 -2.14158,0 -2.98961,0a0.508,0.508 0 0 0 -0.47969,0.68481c0.90779,2.49006 4.81826,10.31519 9.28167,10.31519l1.87865,0a0.74219,0.74219 0 0 0 0.74218,-0.74219l0,-1.13439a0.7293,0.7293 0 0 1 1.22868,-0.5315l2.24861,2.1127a1.08911,1.08911 0 0 0 0.74571,0.29538l2.95281,0c1.42415,0 1.42415,-0.98824 0.64768,-1.75294c-0.54645,-0.53817 -2.51832,-2.61663 -2.51832,-2.61663a1.01862,1.01862 0 0 1 -0.07837,-1.32343c0.63737,-0.83876 1.67988,-2.21175 2.122,-2.79993c0.60433,-0.80394 1.69808,-2.50707 0.19856,-2.50707z"/>
 </g>
</svg>