<svg version="1.1" id="Слой_1" xmlns:xodm="http://www.corel.com/coreldraw/odm/2003" xmlns="http://www.w3.org/2000/svg" xmlns:xlink="http://www.w3.org/1999/xlink" x="0px" y="0px" viewBox="0 0 96 77"
	 style="enable-background:new 0 0 96 77;" xml:space="preserve"><style type="text/css">	.st0{fill-rule:evenodd;clip-rule:evenodd;fill:#6F7AA0;stroke:#66669A;stroke-miterlimit:10;}</style><g id="__x0023_Layer_x0020_1"><g id="_1797899212288"><path class="st0" d="M48.7,76.9c-5.8,0-10.7-0.5-15.5-1.8c-4-1.1-7.7-2.6-11.1-4.9c-2.4-1.6-4.5-3.6-5.9-6.2			c-1.2-2-1.8-4.2-1.8-6.6c0-2.5,0-5,0-7.5c0-0.3-0.1-0.4-0.3-0.5c-2.3-0.6-4.5-1.4-6.5-2.6c-2-1.1-3.8-2.4-5.2-4.1			c-1.2-1.6-2-3.4-2.2-5.4c-0.3-2-0.1-4,0.5-5.9c0.9-3.2,2.5-6,4.4-8.7C9.2,17,14.3,12.4,20.3,8.6c4.3-2.8,9-4.9,14-6.4			c2.9-0.9,5.9-1.6,8.9-1.8c3-0.3,6-0.3,9-0.1C59.7,1,66.6,3.4,73.1,7.1c4.8,2.6,9.1,6,12.9,9.8c3,3,5.6,6.3,7.5,10			c1.2,2.3,2.1,4.7,2.4,7.3c0.3,3.1-0.4,6-2.4,8.5c-1.6,2-3.8,3.5-6.2,4.6c-1.8,0.8-3.5,1.5-5.4,2c-0.3,0.1-0.4,0.2-0.4,0.5			c0.1,2.3,0,4.6,0.1,6.9c0.1,4.5-1.7,8.1-4.9,11.1c-2.6,2.4-5.6,4.1-8.9,5.4c-3.4,1.4-6.9,2.3-10.6,2.8			C54.2,76.7,51.1,76.9,48.7,76.9z M48,9.7L48,9.7c-1.6,0.1-3.1,0.1-4.6,0.3c-2.5,0.3-4.9,0.8-7.3,1.6c-4,1.3-7.7,3.1-11.3,5.5			c-4.7,3.2-8.9,7-12.2,11.7c-1.2,1.7-2.2,3.5-2.8,5.4c-0.4,1.6-0.4,2.1,1,3.2c0.9,0.7,1.8,1.2,2.8,1.6c2.7,1.3,5.6,2,8.5,2.6			c0.6,0.1,1.2,0.3,1.8,0.2c3.1-0.5,6.3-1.2,9.4-1.6c3.8-0.5,7.6-1,11.3-1.5c1.5-0.1,3.1-0.2,4.5-0.1c2.6,0.2,5.2,0.5,7.8,0.8			c4.3,0.6,8.5,1.4,12.8,2c1.3,0.2,2.6,0.5,3.9,0.2c2.9-0.7,5.8-1.3,8.5-2.5c1.2-0.5,2.4-1.2,3.3-2.1c0.5-0.5,0.9-1.2,0.7-2			c-0.1-0.3-0.1-0.7-0.3-0.9c-0.5-2-1.6-3.7-2.7-5.3c-2.4-3.4-5.4-6.4-8.6-9c-3.6-2.8-7.5-5.2-11.8-7C58.2,10.7,53.2,9.7,48,9.7z			 M24.1,55.8L24.1,55.8c0,0.9-0.1,1.7,0,2.4c0.1,1.2,0.9,2,1.8,2.8c1.8,1.7,4.1,2.8,6.4,3.7c4.1,1.6,8.4,2.2,12.8,2.5			c3.9,0.2,7.7,0,11.5-0.6c3.6-0.6,7-1.6,10.2-3.3c1.6-0.8,3-1.8,4.1-3.1c1.2-1.3,1.2-2.8,1-4.4c-1.2-0.1-2.5-0.3-3.7-0.5			c-4.3-0.6-8.5-1.2-12.8-1.8c-1.9-0.3-3.8-0.5-5.7-0.5c-1.6-0.1-3.3-0.1-4.9,0.1c-2.6,0.2-5.2,0.5-7.7,0.7			c-3.1,0.4-6.2,0.9-9.2,1.4C26.6,55.3,25.3,55.6,24.1,55.8L24.1,55.8z"/><path class="st0" d="M47.9,24.1c1-0.8,1.8-1.6,2.8-2.3c2.2-1.6,4.6-2.5,7.4-2.4c2.1,0.1,4.1,0.8,5.8,2c1,0.7,1.9,1.4,2.8,2.2			c0.2,0.1,0.3,0.3,0.5,0.4c0,0.1-0.1,0.1-0.1,0.1c-0.1,0-0.3,0-0.4,0c-2.6,0.1-5.2,0.2-7.7,0.7c-1.8,0.3-3.5,0.9-4.9,2			c-0.7,0.6-1.3,1.3-1.4,2.4c-0.1,2.7-2,4.4-4.7,4.4c-2.7,0.1-4.6-1.6-4.7-4.4c-0.1-1.1-0.6-1.8-1.4-2.4c-1.2-0.9-2.7-1.5-4.3-1.8			c-2.5-0.6-5-0.8-7.6-0.9c-0.3,0-0.7,0-1.2,0c0.1-0.1,0.1-0.2,0.2-0.3c2.2-2.1,4.6-3.7,7.5-4.2c2.4-0.5,4.8-0.1,7,1			c1.4,0.7,2.7,1.7,3.9,2.8C47.6,23.7,47.7,23.9,47.9,24.1z"/></g></g></svg>
