<?xml version="1.0" encoding="UTF-8"?>
<!DOCTYPE svg PUBLIC "-//W3C//DTD SVG 1.1//EN" "http://www.w3.org/Graphics/SVG/1.1/DTD/svg11.dtd">
<!-- Creator: CorelDRAW 2019 (64-Bit) -->
<svg xmlns="http://www.w3.org/2000/svg" xml:space="preserve" width="185px" height="131px" version="1.1" style="shape-rendering:geometricPrecision; text-rendering:geometricPrecision; image-rendering:optimizeQuality; fill-rule:evenodd; clip-rule:evenodd"
viewBox="0 0 8.87 6.32"
 xmlns:xlink="http://www.w3.org/1999/xlink"
 xmlns:xodm="http://www.corel.com/coreldraw/odm/2003">
 <defs>
  <style type="text/css">
   <![CDATA[
    .fil0 {fill:black;fill-rule:nonzero}
   ]]>
  </style>
 </defs>
 <g id="__x0023_Layer_x0020_1">
  <metadata id="CorelCorpID_0Corel-Layer"/>
  <path class="fil0" d="M8.36 0c-0.05,0.06 -0.08,0.11 -0.12,0.15 -1.13,1.14 -2.25,2.27 -3.38,3.41 -0.3,0.3 -0.53,0.3 -0.83,0 -1.12,-1.14 -2.25,-2.27 -3.37,-3.41 -0.04,-0.04 -0.08,-0.08 -0.14,-0.15 2.63,0 5.22,0 7.84,0z"/>
  <path class="fil0" d="M0 0.63c0.84,0.81 1.7,1.65 2.58,2.5 -0.87,0.89 -1.71,1.75 -2.58,2.64 0,-1.76 0,-3.47 0,-5.14z"/>
  <path class="fil0" d="M0.5 6.32c0.88,-0.9 1.73,-1.77 2.59,-2.65 0.39,0.38 0.71,0.84 1.33,0.85 0.63,0.01 0.95,-0.44 1.35,-0.83 0.85,0.87 1.69,1.73 2.57,2.63 -2.63,0 -5.2,0 -7.84,0z"/>
  <path class="fil0" d="M8.87 5.8c-0.88,-0.9 -1.72,-1.76 -2.57,-2.63 0.87,-0.84 1.73,-1.67 2.57,-2.49 0,1.66 0,3.35 0,5.12z"/>
 </g>
</svg>
