<?xml version="1.0" encoding="UTF-8"?>
<!DOCTYPE svg PUBLIC "-//W3C//DTD SVG 1.1//EN" "http://www.w3.org/Graphics/SVG/1.1/DTD/svg11.dtd">
<!-- Creator: CorelDRAW 2019 (64-Bit) -->
<svg xmlns="http://www.w3.org/2000/svg" xml:space="preserve" width="100px" height="216px" version="1.1" style="shape-rendering:geometricPrecision; text-rendering:geometricPrecision; image-rendering:optimizeQuality; fill-rule:evenodd; clip-rule:evenodd"
viewBox="0 0 9.2 19.93"
 xmlns:xlink="http://www.w3.org/1999/xlink"
 xmlns:xodm="http://www.corel.com/coreldraw/odm/2003">
 <defs>
  <style type="text/css">
   <![CDATA[
    .fil0 {fill:black;fill-rule:nonzero}
   ]]>
  </style>
 </defs>
 <g id="__x0023_Layer_x0020_1">
  <metadata id="CorelCorpID_0Corel-Layer"/>
  <path class="fil0" d="M9.2 3.49c0,0 -1.55,0 -2.17,0 -0.77,0 -0.93,0.32 -0.93,1.11 0,0.66 0,1.92 0,1.92l3.1 0 -0.3 3.36 -2.8 0 0 10.05 -4.01 0 0 -10.01 -2.09 0 0 -3.4 2.09 0c0,0 0,-0.49 0,-2.69 0,-2.51 1.34,-3.83 4.33,-3.83 0.49,0 2.78,0 2.78,0l0 3.49z"/>
 </g>
</svg>
