<?xml version="1.0" encoding="UTF-8"?>
<!DOCTYPE svg PUBLIC "-//W3C//DTD SVG 1.1//EN" "http://www.w3.org/Graphics/SVG/1.1/DTD/svg11.dtd">
<!-- Creator: CorelDRAW 2019 (64-Bit) -->
<svg xmlns="http://www.w3.org/2000/svg" xml:space="preserve" width="252px" height="155px" version="1.1" style="shape-rendering:geometricPrecision; text-rendering:geometricPrecision; image-rendering:optimizeQuality; fill-rule:evenodd; clip-rule:evenodd"
viewBox="0 0 22.69 13.97"
 xmlns:xlink="http://www.w3.org/1999/xlink"
 xmlns:xodm="http://www.corel.com/coreldraw/odm/2003">
 <defs>
  <style type="text/css">
   <![CDATA[
    .fil0 {fill:black;fill-rule:nonzero}
   ]]>
  </style>
 </defs>
 <g id="__x0023_Layer_x0020_1">
  <metadata id="CorelCorpID_0Corel-Layer"/>
  <path class="fil0" d="M6.98 13.97c-3.85,0 -6.98,-3.13 -6.98,-6.99 0,-3.85 3.13,-6.98 6.98,-6.98 1.91,0 3.64,0.77 4.9,2.01l-1.43 1.24c-0.91,-0.84 -2.13,-1.36 -3.47,-1.36 -2.81,0 -5.09,2.28 -5.09,5.09 0,2.82 2.28,5.1 5.09,5.1 2.15,0 3.75,-1.39 4.27,-3.66l-4.38 0 -0.01 -1.86 6.49 0 0.01 0.73c0,3.85 -2.67,6.68 -6.38,6.68z"/>
  <polygon class="fil0" points="20.01,8.35 20.01,11.03 18.3,11.03 18.3,8.35 15.62,8.35 15.62,6.64 18.3,6.64 18.3,3.96 20.01,3.96 20.01,6.64 22.69,6.64 22.69,8.35 "/>
 </g>
</svg>
