<?xml version="1.0" encoding="UTF-8"?>
<!DOCTYPE svg PUBLIC "-//W3C//DTD SVG 1.1//EN" "http://www.w3.org/Graphics/SVG/1.1/DTD/svg11.dtd">
<!-- Creator: CorelDRAW 2019 (64-Bit) -->
<svg xmlns="http://www.w3.org/2000/svg" xml:space="preserve" width="318px" height="97px" version="1.1" style="shape-rendering:geometricPrecision; text-rendering:geometricPrecision; image-rendering:optimizeQuality; fill-rule:evenodd; clip-rule:evenodd"
viewBox="0 0 238.29 72.44"
 xmlns:xlink="http://www.w3.org/1999/xlink"
 xmlns:xodm="http://www.corel.com/coreldraw/odm/2003">
 <defs>
  <style type="text/css">
   <![CDATA[
    .fil0 {fill:#231F1F;fill-rule:nonzero}
    .fil1 {fill:#36B1F6;fill-rule:nonzero}
   ]]>
  </style>
 </defs>
 <g id="__x0023_Layer_x0020_1">
  <metadata id="CorelCorpID_0Corel-Layer"/>
  <g id="_1797893050784">
   <path class="fil0" d="M99.21 24.58l8.48 -24.58 8.4 0 8.49 24.58 -6.66 0 -1.25 -4.4 -9.52 0 -1.27 4.4 -6.67 0zm9.38 -9.18l0 0 6.67 0 -2.5 -8.11c-0.08,-0.25 -0.18,-0.65 -0.32,-1.2 -0.13,-0.54 -0.31,-1.25 -0.52,-2.11 -0.14,0.61 -0.29,1.18 -0.43,1.73 -0.14,0.55 -0.28,1.07 -0.43,1.58l-2.47 8.11z"/>
   <polygon class="fil0" points="166.86,24.58 166.86,0 173.63,0 173.63,24.58 "/>
   <path class="fil0" d="M218.79 24.58l0 -24.58 7 0c2.75,0 4.66,0.12 5.74,0.38 1.08,0.25 2.01,0.67 2.8,1.27 0.88,0.67 1.56,1.53 2.03,2.56 0.48,1.05 0.72,2.19 0.72,3.45 0,1.9 -0.47,3.45 -1.4,4.64 -0.94,1.19 -2.3,1.99 -4.09,2.38l6.7 9.9 -7.58 0 -5.64 -9.62 0 9.62 -6.28 0zm6.28 -12.96l0 0 1.24 0c1.45,0 2.5,-0.25 3.17,-0.74 0.66,-0.49 1,-1.26 1,-2.32 0,-1.23 -0.31,-2.1 -0.93,-2.62 -0.63,-0.52 -1.67,-0.79 -3.14,-0.79l-1.34 0 0 6.47z"/>
   <path class="fil0" d="M105.29 60.45l0 11.03 -2.86 0 0 -24.58 5.16 0c1.8,0 3.13,0.09 3.98,0.28 0.85,0.19 1.59,0.5 2.22,0.94 0.78,0.56 1.39,1.33 1.83,2.3 0.45,0.98 0.67,2.06 0.67,3.24 0,1.19 -0.22,2.27 -0.67,3.25 -0.44,0.97 -1.05,1.74 -1.83,2.3 -0.63,0.44 -1.37,0.76 -2.21,0.95 -0.85,0.19 -2.18,0.29 -3.99,0.29l-0.82 0 -1.48 0zm0 -2.65l0 0 1.48 0c2.5,0 4.19,-0.3 5.06,-0.89 0.87,-0.58 1.3,-1.61 1.3,-3.08 0,-1.57 -0.44,-2.67 -1.34,-3.31 -0.88,-0.63 -2.56,-0.95 -5.02,-0.95l-1.48 0 0 8.23z"/>
   <polygon class="fil0" points="124.23,71.48 124.23,46.9 127.15,46.9 127.15,68.69 136.44,68.69 136.44,71.48 "/>
   <path class="fil0" d="M152.02 45.92l11.19 25.56 -3.17 0 -3.19 -7.54 -9.61 0 -3.19 7.54 -3.18 0 11.15 -25.56zm0 6.47l0 0 -3.91 9.05 7.83 0 -3.92 -9.05z"/>
   <polygon class="fil0" points="170.08,71.48 170.08,45.92 188.06,65.57 188.06,46.9 190.85,46.9 190.85,72.44 172.87,53.01 172.87,71.48 "/>
   <polygon class="fil0" points="201.06,71.48 201.06,46.9 214.03,46.9 214.03,49.57 203.98,49.57 203.98,56.62 214.03,56.62 214.03,59.34 203.98,59.34 203.98,68.76 214.03,68.76 214.03,71.48 "/>
   <polygon class="fil0" points="227.61,71.48 227.61,49.68 220.66,49.68 220.66,46.9 237.49,46.9 237.49,49.68 230.57,49.68 230.57,71.48 "/>
  </g>
  <g id="_1797893052416">
   <path class="fil0" d="M148.83 12.34c0,2.67 -2.15,4.82 -4.82,4.82 -2.66,0 -4.82,-2.15 -4.82,-4.82 0,-2.66 2.16,-4.82 4.82,-4.82 2.67,0 4.82,2.16 4.82,4.82z"/>
  </g>
  <g id="_1797893055136">
   <path class="fil0" d="M200.68 12.34c0,2.67 -2.15,4.82 -4.82,4.82 -2.66,0 -4.81,-2.15 -4.81,-4.82 0,-2.66 2.15,-4.82 4.81,-4.82 2.67,0 4.82,2.16 4.82,4.82z"/>
  </g>
  <g id="_1797893054720">
   <path class="fil1" d="M34.59 59.82c-18.97,-3.81 -31.44,-21.34 -27.86,-39.15 0.89,-4.46 2.71,-8.51 5.23,-12.02 -7.34,6.59 -11.96,16.15 -11.96,26.79 0,19.88 16.12,36 36.01,36 16.12,0 29.77,-10.6 34.35,-25.21 -7.5,10.69 -21.43,16.47 -35.77,13.59z"/>
   <path class="fil1" d="M51.03 3.35c-16.46,-7 -34.37,-1.94 -40,11.3 -5.64,13.25 3.14,29.66 19.59,36.66 16.46,7 34.37,1.94 40,-11.3 5.63,-13.25 -3.14,-29.66 -19.59,-36.66zm13.13 27.86l0 0c-4.54,8.95 -17.07,11.72 -28,6.18 -10.92,-5.54 -16.09,-17.29 -11.55,-26.24 4.54,-8.96 17.08,-11.72 28,-6.19 10.93,5.54 16.09,17.29 11.55,26.25z"/>
   <path class="fil1" d="M52.1 6.9c-7.81,-3.96 -16.78,-1.98 -20.02,4.42 -3.25,6.4 0.45,14.81 8.26,18.77 7.81,3.96 16.77,1.98 20.02,-4.42 3.25,-6.41 -0.45,-14.8 -8.26,-18.77z"/>
  </g>
 </g>
</svg>
