<?xml version="1.0" encoding="UTF-8"?>
<!DOCTYPE svg PUBLIC "-//W3C//DTD SVG 1.1//EN" "http://www.w3.org/Graphics/SVG/1.1/DTD/svg11.dtd">
<!-- Creator: CorelDRAW 2019 (64-Bit) -->
<svg xmlns="http://www.w3.org/2000/svg" xml:space="preserve" width="190px" height="155px" version="1.1" style="shape-rendering:geometricPrecision; text-rendering:geometricPrecision; image-rendering:optimizeQuality; fill-rule:evenodd; clip-rule:evenodd"
viewBox="0 0 524.4 426.17"
 xmlns:xlink="http://www.w3.org/1999/xlink"
 xmlns:xodm="http://www.corel.com/coreldraw/odm/2003">
 <defs>
  <style type="text/css">
   <![CDATA[
    .fil0 {fill:black;fill-rule:nonzero}
   ]]>
  </style>
 </defs>
 <g id="__x0023_Layer_x0020_1">
  <metadata id="CorelCorpID_0Corel-Layer"/>
  <path class="fil0" d="M470.72 106.13c6.79,151.32 -106.05,320.04 -305.81,320.04 -60.74,0 -117.29,-17.81 -164.91,-48.35 57.08,6.75 114.05,-9.08 159.28,-44.54 -47.09,-0.88 -86.83,-31.96 -100.48,-74.72 16.82,3.22 33.4,2.3 48.56,-1.84 -51.74,-10.38 -87.45,-57 -86.3,-106.85 14.5,8.05 31.1,12.92 48.76,13.46 -47.93,-32 -61.48,-95.28 -33.3,-143.65 53.05,65.11 132.32,107.95 221.74,112.43 -15.68,-67.31 35.36,-132.11 104.8,-132.11 30.95,0 58.91,13.06 78.53,33.98 24.49,-4.83 47.53,-13.79 68.31,-26.13 -8.03,25.16 -25.09,46.24 -47.29,59.53 21.75,-2.6 42.48,-8.38 61.79,-16.94 -14.42,21.6 -32.67,40.54 -53.68,55.69z"/>
 </g>
</svg>
