<?xml version="1.0" encoding="UTF-8"?>
<!DOCTYPE svg PUBLIC "-//W3C//DTD SVG 1.1//EN" "http://www.w3.org/Graphics/SVG/1.1/DTD/svg11.dtd">
<!-- Creator: CorelDRAW 2019 (64-Bit) -->
<svg xmlns="http://www.w3.org/2000/svg" xml:space="preserve" width="213px" height="120px" version="1.1" style="shape-rendering:geometricPrecision; text-rendering:geometricPrecision; image-rendering:optimizeQuality; fill-rule:evenodd; clip-rule:evenodd"
viewBox="0 0 12.08 6.83"
 xmlns:xlink="http://www.w3.org/1999/xlink"
 xmlns:xodm="http://www.corel.com/coreldraw/odm/2003">
 <defs>
  <style type="text/css">
   <![CDATA[
    .fil0 {fill:black;fill-rule:nonzero}
   ]]>
  </style>
 </defs>
 <g id="__x0023_Layer_x0020_1">
  <metadata id="CorelCorpID_0Corel-Layer"/>
  <path class="fil0" d="M10.77 4.71c0.97,0.89 1.17,1.32 1.2,1.38 0,0 0.4,0.69 -0.45,0.7l-1.61 0.03c-0.34,0.06 -0.8,-0.25 -0.8,-0.25 -0.6,-0.41 -1.17,-1.47 -1.61,-1.34 0,0 -0.45,0.15 -0.44,1.11 0.01,0.2 -0.09,0.31 -0.09,0.31 0,0 -0.12,0.12 -0.34,0.14l-0.72 0c-1.59,0.1 -2.99,-1.35 -2.99,-1.35 0,0 -1.54,-1.57 -2.88,-4.7 -0.09,-0.21 0,-0.31 0,-0.31 0,0 0.1,-0.12 0.36,-0.12l1.72 -0.01c0.17,0.03 0.28,0.11 0.28,0.11 0,0 0.1,0.07 0.15,0.2 0.29,0.7 0.65,1.34 0.65,1.34 0.63,1.28 1.06,1.5 1.3,1.36 0,0 0.32,-0.19 0.25,-1.74 -0.02,-0.56 -0.18,-0.81 -0.18,-0.81 -0.14,-0.2 -0.41,-0.25 -0.53,-0.27 -0.1,-0.01 0.06,-0.24 0.27,-0.34 0.31,-0.15 0.85,-0.15 1.5,-0.15 0.51,0.01 0.65,0.04 0.85,0.08 0.6,0.15 0.39,0.69 0.39,2.01 0,0.43 -0.08,1.02 0.23,1.21 0.13,0.09 0.46,0.01 1.26,-1.34 0,0 0.38,-0.65 0.68,-1.4 0.05,-0.14 0.15,-0.2 0.15,-0.2 0,0 0.1,-0.05 0.24,-0.04l1.81 -0.01c0.55,-0.07 0.64,0.18 0.64,0.18 0.09,0.26 -0.2,0.86 -0.94,1.83 -1.22,1.61 -1.36,1.46 -0.35,2.39z"/>
 </g>
</svg>
