<svg xmlns="http://www.w3.org/2000/svg" width="185" height="131" viewBox="0 0 8.87 6.32" shape-rendering="geometricPrecision" text-rendering="geometricPrecision" image-rendering="optimizeQuality" fill-rule="evenodd" clip-rule="evenodd"><defs><style>.fil0{fill:#000;fill-rule:nonzero}</style></defs><g id="__x0023_Layer_x0020_1"><path class="fil0" d="M8.36 0c-.05.06-.08.11-.12.15L4.86 3.56c-.3.3-.53.3-.83 0C2.91 2.42 1.78 1.29.66.15A2.36 2.36 0 0 1 .52 0h7.84zM0 .63c.84.81 1.7 1.65 2.58 2.5L0 5.77V.63z"/><path class="fil0" d="M.5 6.32l2.59-2.65c.39.38.71.84 1.33.85.63.01.95-.44 1.35-.83l2.57 2.63H.5zm8.37-.52L6.3 3.17C7.17 2.33 8.03 1.5 8.87.68V5.8z"/></g></svg>