<svg xmlns="http://www.w3.org/2000/svg" width="252" height="155" viewBox="0 0 22.69 13.97" shape-rendering="geometricPrecision" text-rendering="geometricPrecision" image-rendering="optimizeQuality" fill-rule="evenodd" clip-rule="evenodd"><path d="M6.98 13.97C3.13 13.97 0 10.84 0 6.98 0 3.13 3.13 0 6.98 0c1.91 0 3.64.77 4.9 2.01l-1.43 1.24a5.105 5.105 0 0 0-3.47-1.36c-2.81 0-5.09 2.28-5.09 5.09 0 2.82 2.28 5.1 5.09 5.1 2.15 0 3.75-1.39 4.27-3.66H6.87l-.01-1.86h6.49l.01.73c0 3.85-2.67 6.68-6.38 6.68zm13.03-5.62v2.68H18.3V8.35h-2.68V6.64h2.68V3.96h1.71v2.68h2.68v1.71z" fill-rule="nonzero"/></svg>