<svg xmlns="http://www.w3.org/2000/svg" width="318" height="97" viewBox="0 0 238.29 72.44" shape-rendering="geometricPrecision" text-rendering="geometricPrecision" image-rendering="optimizeQuality" fill-rule="evenodd" clip-rule="evenodd"><defs><style>.fil0,.fil1{fill:#231f1f;fill-rule:nonzero}.fil1{fill:#36b1f6}</style></defs><g id="__x0023_Layer_x0020_1"><path class="fil0" d="M99.21 24.58L107.69 0h8.4l8.49 24.58h-6.66l-1.25-4.4h-9.52l-1.27 4.4h-6.67zm9.38-9.18h6.67l-2.5-8.11c-.08-.25-.18-.65-.32-1.2-.13-.54-.31-1.25-.52-2.11-.14.61-.29 1.18-.43 1.73s-.28 1.07-.43 1.58l-2.47 8.11zm58.27 9.18V0h6.77v24.58zm51.93 0V0h7c2.75 0 4.66.12 5.74.38 1.08.25 2.01.67 2.8 1.27.88.67 1.56 1.53 2.03 2.56.48 1.05.72 2.19.72 3.45 0 1.9-.47 3.45-1.4 4.64-.94 1.19-2.3 1.99-4.09 2.38l6.7 9.9h-7.58l-5.64-9.62v9.62h-6.28zm6.28-12.96h1.24c1.45 0 2.5-.25 3.17-.74.66-.49 1-1.26 1-2.32 0-1.23-.31-2.1-.93-2.62-.63-.52-1.67-.79-3.14-.79h-1.34v6.47zM105.29 60.45v11.03h-2.86V46.9h5.16c1.8 0 3.13.09 3.98.28.85.19 1.59.5 2.22.94.78.56 1.39 1.33 1.83 2.3.45.98.67 2.06.67 3.24 0 1.19-.22 2.27-.67 3.25-.44.97-1.05 1.74-1.83 2.3-.63.44-1.37.76-2.21.95-.85.19-2.18.29-3.99.29h-2.3zm0-2.65h1.48c2.5 0 4.19-.3 5.06-.89.87-.58 1.3-1.61 1.3-3.08 0-1.57-.44-2.67-1.34-3.31-.88-.63-2.56-.95-5.02-.95h-1.48v8.23zm18.94 13.68V46.9h2.92v21.79h9.29v2.79zm27.79-25.56l11.19 25.56h-3.17l-3.19-7.54h-9.61l-3.19 7.54h-3.18l11.15-25.56zm0 6.47l-3.91 9.05h7.83l-3.92-9.05zm18.06 19.09V45.92l17.98 19.65V46.9h2.79v25.54l-17.98-19.43v18.47zm30.98 0V46.9h12.97v2.67h-10.05v7.05h10.05v2.72h-10.05v9.42h10.05v2.72zm26.55 0v-21.8h-6.95V46.9h16.83v2.78h-6.92v21.8z" id="_1797893050784"/><path class="fil0" d="M148.83 12.34a4.81 4.81 0 0 1-4.82 4.82c-2.66 0-4.82-2.15-4.82-4.82 0-2.66 2.16-4.82 4.82-4.82 2.67 0 4.82 2.16 4.82 4.82z" id="_1797893052416"/><path class="fil0" d="M200.68 12.34a4.81 4.81 0 0 1-4.82 4.82c-2.66 0-4.81-2.15-4.81-4.82a4.814 4.814 0 1 1 9.63 0z" id="_1797893055136"/><g id="_1797893054720"><path class="fil1" d="M34.59 59.82C15.62 56.01 3.15 38.48 6.73 20.67c.89-4.46 2.71-8.51 5.23-12.02C4.62 15.24 0 24.8 0 35.44c0 19.88 16.12 36 36.01 36 16.12 0 29.77-10.6 34.35-25.21-7.5 10.69-21.43 16.47-35.77 13.59z"/><path class="fil1" d="M51.03 3.35c-16.46-7-34.37-1.94-40 11.3-5.64 13.25 3.14 29.66 19.59 36.66 16.46 7 34.37 1.94 40-11.3 5.63-13.25-3.14-29.66-19.59-36.66zm13.13 27.86c-4.54 8.95-17.07 11.72-28 6.18-10.92-5.54-16.09-17.29-11.55-26.24 4.54-8.96 17.08-11.72 28-6.19C63.54 10.5 68.7 22.25 64.16 31.21z"/><path class="fil1" d="M52.1 6.9c-7.81-3.96-16.78-1.98-20.02 4.42-3.25 6.4.45 14.81 8.26 18.77 7.81 3.96 16.77 1.98 20.02-4.42 3.25-6.41-.45-14.8-8.26-18.77z"/></g></g></svg>