<svg xmlns="http://www.w3.org/2000/svg" width="190" height="155" viewBox="0 0 524.4 426.17" shape-rendering="geometricPrecision" text-rendering="geometricPrecision" image-rendering="optimizeQuality" fill-rule="evenodd" clip-rule="evenodd"><path d="M470.72 106.13c6.79 151.32-106.05 320.04-305.81 320.04-60.74 0-117.29-17.81-164.91-48.35 57.08 6.75 114.05-9.08 159.28-44.54-47.09-.88-86.83-31.96-100.48-74.72 16.82 3.22 33.4 2.3 48.56-1.84-51.74-10.38-87.45-57-86.3-106.85 14.5 8.05 31.1 12.92 48.76 13.46-47.93-32-61.48-95.28-33.3-143.65 53.05 65.11 132.32 107.95 221.74 112.43C242.58 64.8 293.62 0 363.06 0c30.95 0 58.91 13.06 78.53 33.98A215.345 215.345 0 0 0 509.9 7.85c-8.03 25.16-25.09 46.24-47.29 59.53 21.75-2.6 42.48-8.38 61.79-16.94-14.42 21.6-32.67 40.54-53.68 55.69z" fill-rule="nonzero"/></svg>