<svg xmlns="http://www.w3.org/2000/svg" width="213" height="120" viewBox="0 0 12.08 6.83" shape-rendering="geometricPrecision" text-rendering="geometricPrecision" image-rendering="optimizeQuality" fill-rule="evenodd" clip-rule="evenodd"><path d="M10.77 4.71c.97.89 1.17 1.32 1.2 1.38 0 0 .4.69-.45.7l-1.61.03c-.34.06-.8-.25-.8-.25-.6-.41-1.17-1.47-1.61-1.34 0 0-.45.15-.44 1.11.01.2-.09.31-.09.31s-.12.12-.34.14h-.72c-1.59.1-2.99-1.35-2.99-1.35S1.38 3.87.04.74C-.05.53.04.43.04.43S.14.31.4.31L2.12.3c.17.03.28.11.28.11s.1.07.15.2c.29.7.65 1.34.65 1.34.63 1.28 1.06 1.5 1.3 1.36 0 0 .32-.19.25-1.74-.02-.56-.18-.81-.18-.81-.14-.2-.41-.25-.53-.27-.1-.01.06-.24.27-.34C4.62 0 5.16 0 5.81 0c.51.01.65.04.85.08.6.15.39.69.39 2.01 0 .43-.08 1.02.23 1.21.13.09.46.01 1.26-1.34 0 0 .38-.65.68-1.4a.4.4 0 0 1 .15-.2s.1-.05.24-.04l1.81-.01c.55-.07.64.18.64.18.09.26-.2.86-.94 1.83-1.22 1.61-1.36 1.46-.35 2.39z" fill-rule="nonzero"/></svg>