<svg version="1.1" id="Layer_1" xmlns="http://www.w3.org/2000/svg" x="0" y="0" viewBox="0 0 36 36" xml:space="preserve"><style>.st0{fill:#5972b1}</style><path class="st0" d="M27.49 9.71c-.11.16-.19.29-.29.39-2.72 2.98-5.45 5.96-8.18 8.94-.73.8-1.28.8-2 .01-2.72-2.98-5.44-5.97-8.16-8.96-.09-.1-.18-.21-.33-.39 6.36.01 12.62.01 18.96.01zM7.27 11.37c2.02 2.12 4.11 4.31 6.25 6.55-2.11 2.34-4.14 4.59-6.25 6.94V11.37z"/><path class="st0" d="M8.49 26.29c2.12-2.36 4.18-4.64 6.26-6.95.95 1 1.71 2.2 3.22 2.23 1.51.03 2.29-1.16 3.27-2.17 2.06 2.28 4.09 4.55 6.21 6.9-6.36-.01-12.59-.01-18.96-.01zm20.24-1.36c-2.12-2.36-4.16-4.61-6.22-6.91 2.1-2.21 4.18-4.39 6.22-6.53v13.44z"/></svg>